# xmcd
#
# Track frame offsets:
#  150
#  15554
#  31275
#  52358
#  63044
#  79672
#  94078
#  122510
#
# Disc length: 1989 seconds
#
# Revision: 0
# Processed by: cddbd v1.5.1PL0 Copyright (c) Steve Scherf et al.
# Submitted via: Collectorz.com_Music_Collector 6.9
#
DISCID=5c07c308
DTITLE=Jimmy Dawkins - Come Back Baby
DYEAR=1995
DGENRE=
TTITLE0=Pretty Woman
TTITLE1=Nature Ball
TTITLE2=Hard Road To Travel
TTITLE3=J.D.'s Jam
TTITLE4=Cross Road Blues
TTITLE5=Big Dukes
TTITLE6=I Got Wise
TTITLE7=Come Back Baby
EXTD=
EXTT0=
EXTT1=
EXTT2=
EXTT3=
EXTT4=
EXTT5=
EXTT6=
EXTT7=
PLAYORDER=
